<?xml version="1.0" encoding="UTF-8"?>
<!--Generator: Apple Native CoreSVG 175-->
<!DOCTYPE svg
PUBLIC "-//W3C//DTD SVG 1.1//EN"
       "http://www.w3.org/Graphics/SVG/1.1/DTD/svg11.dtd">
<svg version="1.1" xmlns="http://www.w3.org/2000/svg" xmlns:xlink="http://www.w3.org/1999/xlink" width="3300" height="2200">
 <!--glyph: "uni100303.medium", point size: 100.0, font version: "17.1d1e1", template writer version: "65.1"-->
 <g id="Notes">
  <rect height="2200" id="artboard" style="fill:white;opacity:1" width="3300" x="0" y="0"/>
  <line style="fill:none;stroke:black;opacity:1;stroke-width:0.5;" x1="263" x2="3036" y1="292" y2="292"/>
  <text style="stroke:none;fill:black;font-family:sans-serif;font-size:13;font-weight:bold;" transform="matrix(1 0 0 1 263 322)">Weight/Scale Variations</text>
  <text style="stroke:none;fill:black;font-family:sans-serif;font-size:13;text-anchor:middle;" transform="matrix(1 0 0 1 559.711 322)">Ultralight</text>
  <text style="stroke:none;fill:black;font-family:sans-serif;font-size:13;text-anchor:middle;" transform="matrix(1 0 0 1 856.422 322)">Thin</text>
  <text style="stroke:none;fill:black;font-family:sans-serif;font-size:13;text-anchor:middle;" transform="matrix(1 0 0 1 1153.13 322)">Light</text>
  <text style="stroke:none;fill:black;font-family:sans-serif;font-size:13;text-anchor:middle;" transform="matrix(1 0 0 1 1449.84 322)">Regular</text>
  <text style="stroke:none;fill:black;font-family:sans-serif;font-size:13;text-anchor:middle;" transform="matrix(1 0 0 1 1746.56 322)">Medium</text>
  <text style="stroke:none;fill:black;font-family:sans-serif;font-size:13;text-anchor:middle;" transform="matrix(1 0 0 1 2043.27 322)">Semibold</text>
  <text style="stroke:none;fill:black;font-family:sans-serif;font-size:13;text-anchor:middle;" transform="matrix(1 0 0 1 2339.98 322)">Bold</text>
  <text style="stroke:none;fill:black;font-family:sans-serif;font-size:13;text-anchor:middle;" transform="matrix(1 0 0 1 2636.69 322)">Heavy</text>
  <text style="stroke:none;fill:black;font-family:sans-serif;font-size:13;text-anchor:middle;" transform="matrix(1 0 0 1 2933.4 322)">Black</text>
  <line style="fill:none;stroke:black;opacity:1;stroke-width:0.5;" x1="263" x2="3036" y1="1903" y2="1903"/>
  <g transform="matrix(1 0 0 1 263 1933)">
   <path d="M9.24805 0.830078Q10.8691 0.830078 12.2949 0.214844Q13.7207-0.400391 14.8096-1.49414Q15.8984-2.58789 16.5186-4.01367Q17.1387-5.43945 17.1387-7.05078Q17.1387-8.66211 16.5186-10.0879Q15.8984-11.5137 14.8047-12.6074Q13.7109-13.7012 12.2852-14.3164Q10.8594-14.9316 9.23828-14.9316Q7.62695-14.9316 6.20117-14.3164Q4.77539-13.7012 3.69141-12.6074Q2.60742-11.5137 1.9873-10.0879Q1.36719-8.66211 1.36719-7.05078Q1.36719-5.43945 1.9873-4.01367Q2.60742-2.58789 3.69629-1.49414Q4.78516-0.400391 6.21094 0.214844Q7.63672 0.830078 9.24805 0.830078ZM9.24805-0.654297Q7.91992-0.654297 6.7627-1.14746Q5.60547-1.64062 4.73145-2.51953Q3.85742-3.39844 3.36426-4.56055Q2.87109-5.72266 2.87109-7.05078Q2.87109-8.37891 3.35938-9.54102Q3.84766-10.7031 4.72168-11.582Q5.5957-12.4609 6.75293-12.9541Q7.91016-13.4473 9.23828-13.4473Q10.5762-13.4473 11.7334-12.9541Q12.8906-12.4609 13.7695-11.582Q14.6484-10.7031 15.1465-9.54102Q15.6445-8.37891 15.6445-7.05078Q15.6445-5.72266 15.1514-4.56055Q14.6582-3.39844 13.7842-2.51953Q12.9102-1.64062 11.748-1.14746Q10.5859-0.654297 9.24805-0.654297ZM5.6543-7.05078Q5.6543-6.72852 5.85938-6.52832Q6.06445-6.32812 6.40625-6.32812L8.51562-6.32812L8.51562-4.20898Q8.51562-3.88672 8.71094-3.67676Q8.90625-3.4668 9.23828-3.4668Q9.56055-3.4668 9.77051-3.67676Q9.98047-3.88672 9.98047-4.20898L9.98047-6.32812L12.0898-6.32812Q12.4219-6.32812 12.627-6.52832Q12.832-6.72852 12.832-7.05078Q12.832-7.38281 12.627-7.58789Q12.4219-7.79297 12.0898-7.79297L9.98047-7.79297L9.98047-9.90234Q9.98047-10.2344 9.77051-10.4443Q9.56055-10.6543 9.23828-10.6543Q8.90625-10.6543 8.71094-10.4443Q8.51562-10.2344 8.51562-9.90234L8.51562-7.79297L6.40625-7.79297Q6.06445-7.79297 5.85938-7.58789Q5.6543-7.38281 5.6543-7.05078Z"/>
  </g>
  <g transform="matrix(1 0 0 1 281.867 1933)">
   <path d="M11.709 2.91016Q13.75 2.91016 15.5518 2.12891Q17.3535 1.34766 18.7305-0.0292969Q20.1074-1.40625 20.8887-3.20801Q21.6699-5.00977 21.6699-7.05078Q21.6699-9.0918 20.8887-10.8936Q20.1074-12.6953 18.7305-14.0723Q17.3535-15.4492 15.5469-16.2305Q13.7402-17.0117 11.6992-17.0117Q9.6582-17.0117 7.85645-16.2305Q6.05469-15.4492 4.68262-14.0723Q3.31055-12.6953 2.5293-10.8936Q1.74805-9.0918 1.74805-7.05078Q1.74805-5.00977 2.5293-3.20801Q3.31055-1.40625 4.6875-0.0292969Q6.06445 1.34766 7.86621 2.12891Q9.66797 2.91016 11.709 2.91016ZM11.709 1.25Q9.98047 1.25 8.47656 0.605469Q6.97266-0.0390625 5.83496-1.17676Q4.69727-2.31445 4.05762-3.81836Q3.41797-5.32227 3.41797-7.05078Q3.41797-8.7793 4.05762-10.2832Q4.69727-11.7871 5.83008-12.9297Q6.96289-14.0723 8.4668-14.7119Q9.9707-15.3516 11.6992-15.3516Q13.4277-15.3516 14.9316-14.7119Q16.4355-14.0723 17.5781-12.9297Q18.7207-11.7871 19.3652-10.2832Q20.0098-8.7793 20.0098-7.05078Q20.0098-5.32227 19.3701-3.81836Q18.7305-2.31445 17.5928-1.17676Q16.4551-0.0390625 14.9463 0.605469Q13.4375 1.25 11.709 1.25ZM7.17773-7.05078Q7.17773-6.69922 7.41211-6.47461Q7.64648-6.25 8.01758-6.25L10.8887-6.25L10.8887-3.36914Q10.8887-2.99805 11.1133-2.76855Q11.3379-2.53906 11.6895-2.53906Q12.0605-2.53906 12.29-2.76855Q12.5195-2.99805 12.5195-3.36914L12.5195-6.25L15.4004-6.25Q15.7715-6.25 16.001-6.47461Q16.2305-6.69922 16.2305-7.05078Q16.2305-7.42188 16.001-7.65137Q15.7715-7.88086 15.4004-7.88086L12.5195-7.88086L12.5195-10.752Q12.5195-11.1328 12.29-11.3623Q12.0605-11.5918 11.6895-11.5918Q11.3379-11.5918 11.1133-11.3574Q10.8887-11.123 10.8887-10.752L10.8887-7.88086L8.01758-7.88086Q7.63672-7.88086 7.40723-7.65137Q7.17773-7.42188 7.17773-7.05078Z"/>
  </g>
  <g transform="matrix(1 0 0 1 305.646 1933)">
   <path d="M14.9707 5.66406Q17.0605 5.66406 18.96 5.01465Q20.8594 4.36523 22.4512 3.19336Q24.043 2.02148 25.2197 0.429688Q26.3965-1.16211 27.0459-3.06641Q27.6953-4.9707 27.6953-7.05078Q27.6953-9.14062 27.0459-11.04Q26.3965-12.9395 25.2197-14.5312Q24.043-16.123 22.4512-17.2998Q20.8594-18.4766 18.9551-19.126Q17.0508-19.7754 14.9609-19.7754Q12.8711-19.7754 10.9717-19.126Q9.07227-18.4766 7.48535-17.2998Q5.89844-16.123 4.72168-14.5312Q3.54492-12.9395 2.90039-11.04Q2.25586-9.14062 2.25586-7.05078Q2.25586-4.9707 2.90527-3.06641Q3.55469-1.16211 4.72656 0.429688Q5.89844 2.02148 7.49023 3.19336Q9.08203 4.36523 10.9814 5.01465Q12.8809 5.66406 14.9707 5.66406ZM14.9707 3.84766Q13.1641 3.84766 11.5283 3.2959Q9.89258 2.74414 8.53516 1.74805Q7.17773 0.751953 6.17676-0.610352Q5.17578-1.97266 4.62891-3.6084Q4.08203-5.24414 4.08203-7.05078Q4.08203-8.86719 4.62891-10.5029Q5.17578-12.1387 6.17188-13.501Q7.16797-14.8633 8.52539-15.8594Q9.88281-16.8555 11.5186-17.4023Q13.1543-17.9492 14.9609-17.9492Q16.7773-17.9492 18.4131-17.4023Q20.0488-16.8555 21.4111-15.8594Q22.7734-14.8633 23.7695-13.501Q24.7656-12.1387 25.3174-10.5029Q25.8691-8.86719 25.8691-7.05078Q25.8789-5.24414 25.332-3.6084Q24.7852-1.97266 23.7842-0.610352Q22.7832 0.751953 21.4209 1.74805Q20.0586 2.74414 18.4229 3.2959Q16.7871 3.84766 14.9707 3.84766ZM9.19922-7.05078Q9.19922-6.66992 9.45801-6.4209Q9.7168-6.17188 10.1172-6.17188L14.0625-6.17188L14.0625-2.2168Q14.0625-1.81641 14.3115-1.55762Q14.5605-1.29883 14.9512-1.29883Q15.3516-1.29883 15.6104-1.55273Q15.8691-1.80664 15.8691-2.2168L15.8691-6.17188L19.8242-6.17188Q20.2246-6.17188 20.4785-6.4209Q20.7324-6.66992 20.7324-7.05078Q20.7324-7.46094 20.4785-7.71484Q20.2246-7.96875 19.8242-7.96875L15.8691-7.96875L15.8691-11.9141Q15.8691-12.3242 15.6104-12.583Q15.3516-12.8418 14.9512-12.8418Q14.5605-12.8418 14.3115-12.583Q14.0625-12.3242 14.0625-11.9141L14.0625-7.96875L10.1172-7.96875Q9.70703-7.96875 9.45312-7.71484Q9.19922-7.46094 9.19922-7.05078Z"/>
  </g>
  <text style="stroke:none;fill:black;font-family:sans-serif;font-size:13;font-weight:bold;" transform="matrix(1 0 0 1 263 1953)">Design Variations</text>
  <text style="stroke:none;fill:black;font-family:sans-serif;font-size:13;" transform="matrix(1 0 0 1 263 1971)">Symbols are supported in up to nine weights and three scales.</text>
  <text style="stroke:none;fill:black;font-family:sans-serif;font-size:13;" transform="matrix(1 0 0 1 263 1989)">For optimal layout with text and other symbols, vertically align</text>
  <text style="stroke:none;fill:black;font-family:sans-serif;font-size:13;" transform="matrix(1 0 0 1 263 2007)">symbols with the adjacent text.</text>
  <line style="fill:none;stroke:#00AEEF;stroke-width:0.5;opacity:1.0;" x1="776" x2="776" y1="1919" y2="1933"/>
  <g transform="matrix(1 0 0 1 776 1933)">
   <path d="M3.31055 0.15625Q3.70117 0.15625 3.91602-0.00976562Q4.13086-0.175781 4.26758-0.585938L5.52734-4.0332L11.2891-4.0332L12.5488-0.585938Q12.6855-0.175781 12.9004-0.00976562Q13.1152 0.15625 13.4961 0.15625Q13.8867 0.15625 14.1162-0.0585938Q14.3457-0.273438 14.3457-0.644531Q14.3457-0.869141 14.2383-1.17188L9.6582-13.3691Q9.48242-13.8184 9.17969-14.043Q8.87695-14.2676 8.4082-14.2676Q7.5-14.2676 7.17773-13.3789L2.59766-1.16211Q2.49023-0.859375 2.49023-0.634766Q2.49023-0.263672 2.70996-0.0537109Q2.92969 0.15625 3.31055 0.15625ZM6.00586-5.51758L8.37891-12.0898L8.42773-12.0898L10.8008-5.51758Z"/>
  </g>
  <line style="fill:none;stroke:#00AEEF;stroke-width:0.5;opacity:1.0;" x1="793.197" x2="793.197" y1="1919" y2="1933"/>
  <text style="stroke:none;fill:black;font-family:sans-serif;font-size:13;font-weight:bold;" transform="matrix(1 0 0 1 776 1953)">Margins</text>
  <text style="stroke:none;fill:black;font-family:sans-serif;font-size:13;" transform="matrix(1 0 0 1 776 1971)">Leading and trailing margins on the left and right side of each symbol</text>
  <text style="stroke:none;fill:black;font-family:sans-serif;font-size:13;" transform="matrix(1 0 0 1 776 1989)">can be adjusted by modifying the x-location of the margin guidelines.</text>
  <text style="stroke:none;fill:black;font-family:sans-serif;font-size:13;" transform="matrix(1 0 0 1 776 2007)">Modifications are automatically applied proportionally to all</text>
  <text style="stroke:none;fill:black;font-family:sans-serif;font-size:13;" transform="matrix(1 0 0 1 776 2025)">scales and weights.</text>
  <g transform="matrix(1 0 0 1 1289 1933)">
   <path d="M2.8418 1.86523L4.54102 3.57422Q5.18555 4.22852 5.90332 4.17969Q6.62109 4.13086 7.31445 3.35938L18.0078-8.42773L17.041-9.4043L6.42578 2.27539Q6.16211 2.57812 5.89355 2.61719Q5.625 2.65625 5.27344 2.30469L4.10156 1.14258Q3.75 0.791016 3.79395 0.522461Q3.83789 0.253906 4.14062-0.0195312L15.6152-10.8203L14.6387-11.7871L3.04688-0.898438Q2.30469-0.214844 2.25098 0.498047Q2.19727 1.21094 2.8418 1.86523ZM9.25781-16.3281Q8.94531-16.0254 8.90625-15.6348Q8.86719-15.2441 9.04297-14.9512Q9.21875-14.6777 9.55566-14.541Q9.89258-14.4043 10.3809-14.5215Q11.4746-14.7754 12.5977-14.7314Q13.7207-14.6875 14.7949-13.9844L14.209-12.5293Q13.9551-11.9043 14.0674-11.4404Q14.1797-10.9766 14.5801-10.5664L16.875-8.25195Q17.2363-7.88086 17.5781-7.82227Q17.9199-7.76367 18.3398-7.8418L19.4043-8.03711L20.0684-7.36328L20.0293-6.80664Q20-6.43555 20.1221-6.12305Q20.2441-5.81055 20.6055-5.44922L21.3672-4.70703Q21.7285-4.3457 22.1533-4.33105Q22.5781-4.31641 22.9297-4.66797L25.8398-7.58789Q26.1914-7.93945 26.1816-8.35449Q26.1719-8.76953 25.8105-9.13086L25.0391-9.89258Q24.6875-10.2539 24.3799-10.3857Q24.0723-10.5176 23.7109-10.4883L23.1348-10.4395L22.4902-11.0742L22.7344-12.1973Q22.832-12.6172 22.6953-12.9834Q22.5586-13.3496 22.1191-13.7891L19.9219-15.9766Q18.6719-17.2168 17.2607-17.8369Q15.8496-18.457 14.4189-18.4814Q12.9883-18.5059 11.665-17.959Q10.3418-17.4121 9.25781-16.3281ZM10.752-15.957Q11.6602-16.6211 12.7002-16.9043Q13.7402-17.1875 14.8047-17.085Q15.8691-16.9824 16.8701-16.5137Q17.8711-16.0449 18.7012-15.2051L21.1328-12.793Q21.3086-12.6172 21.3525-12.4512Q21.3965-12.2852 21.3379-12.0312L21.0156-10.5469L22.5195-9.0625L23.5059-9.12109Q23.6914-9.13086 23.7891-9.09668Q23.8867-9.0625 24.0332-8.91602L24.6094-8.33984L22.168-5.89844L21.5918-6.47461Q21.4453-6.62109 21.4062-6.71875Q21.3672-6.81641 21.377-7.01172L21.4453-7.98828L19.9512-9.47266L18.4277-9.21875Q18.1836-9.16992 18.042-9.2041Q17.9004-9.23828 17.7148-9.41406L15.7129-11.416Q15.5176-11.5918 15.4932-11.7529Q15.4688-11.9141 15.5859-12.1875L16.4648-14.2773Q15.293-15.3711 13.8281-15.791Q12.3633-16.2109 10.8398-15.7617Q10.7227-15.7324 10.6885-15.8057Q10.6543-15.8789 10.752-15.957Z"/>
  </g>
  <text style="stroke:none;fill:black;font-family:sans-serif;font-size:13;font-weight:bold;" transform="matrix(1 0 0 1 1289 1953)">Exporting</text>
  <text style="stroke:none;fill:black;font-family:sans-serif;font-size:13;" transform="matrix(1 0 0 1 1289 1971)">Symbols should be outlined when exporting to ensure the</text>
  <text style="stroke:none;fill:black;font-family:sans-serif;font-size:13;" transform="matrix(1 0 0 1 1289 1989)">design is preserved when submitting to Xcode.</text>
  <text id="template-version" style="stroke:none;fill:black;font-family:sans-serif;font-size:13;text-anchor:end;" transform="matrix(1 0 0 1 3036 1933)">Template v.3.0</text>
  <text style="stroke:none;fill:black;font-family:sans-serif;font-size:13;text-anchor:end;" transform="matrix(1 0 0 1 3036 1951)">Requires Xcode 13 or greater</text>
  <text id="descriptive-name" style="stroke:none;fill:black;font-family:sans-serif;font-size:13;text-anchor:end;" transform="matrix(1 0 0 1 3036 1969)">Generated from text.justify</text>
  <text style="stroke:none;fill:black;font-family:sans-serif;font-size:13;text-anchor:end;" transform="matrix(1 0 0 1 3036 1987)">Typeset at 100 points</text>
  <text style="stroke:none;fill:black;font-family:sans-serif;font-size:13;" transform="matrix(1 0 0 1 263 726)">Small</text>
  <text style="stroke:none;fill:black;font-family:sans-serif;font-size:13;" transform="matrix(1 0 0 1 263 1156)">Medium</text>
  <text style="stroke:none;fill:black;font-family:sans-serif;font-size:13;" transform="matrix(1 0 0 1 263 1586)">Large</text>
 </g>
 <g id="Guides">
  <g id="H-reference" style="fill:#27AAE1;stroke:none;" transform="matrix(1 0 0 1 339 696)">
   <path d="M0.993347 0L3.6377 0L29.3282-67.1326L30.0301-67.1326L30.0301-70.459L28.1227-70.459ZM11.6882-24.4797L46.9818-24.4797L46.2311-26.7288L12.4382-26.7288ZM55.1193 0L57.7637 0L30.6381-70.459L29.4327-70.459L29.4327-67.1326Z"/>
  </g>
  <line id="Baseline-S" style="fill:none;stroke:#27AAE1;opacity:1;stroke-width:0.5;" x1="263" x2="3036" y1="696" y2="696"/>
  <line id="Capline-S" style="fill:none;stroke:#27AAE1;opacity:1;stroke-width:0.5;" x1="263" x2="3036" y1="625.541" y2="625.541"/>
  <g id="H-reference" style="fill:#27AAE1;stroke:none;" transform="matrix(1 0 0 1 339 1126)">
   <path d="M0.993347 0L3.6377 0L29.3282-67.1326L30.0301-67.1326L30.0301-70.459L28.1227-70.459ZM11.6882-24.4797L46.9818-24.4797L46.2311-26.7288L12.4382-26.7288ZM55.1193 0L57.7637 0L30.6381-70.459L29.4327-70.459L29.4327-67.1326Z"/>
  </g>
  <line id="Baseline-M" style="fill:none;stroke:#27AAE1;opacity:1;stroke-width:0.5;" x1="263" x2="3036" y1="1126" y2="1126"/>
  <line id="Capline-M" style="fill:none;stroke:#27AAE1;opacity:1;stroke-width:0.5;" x1="263" x2="3036" y1="1055.54" y2="1055.54"/>
  <g id="H-reference" style="fill:#27AAE1;stroke:none;" transform="matrix(1 0 0 1 339 1556)">
   <path d="M0.993347 0L3.6377 0L29.3282-67.1326L30.0301-67.1326L30.0301-70.459L28.1227-70.459ZM11.6882-24.4797L46.9818-24.4797L46.2311-26.7288L12.4382-26.7288ZM55.1193 0L57.7637 0L30.6381-70.459L29.4327-70.459L29.4327-67.1326Z"/>
  </g>
  <line id="Baseline-L" style="fill:none;stroke:#27AAE1;opacity:1;stroke-width:0.5;" x1="263" x2="3036" y1="1556" y2="1556"/>
  <line id="Capline-L" style="fill:none;stroke:#27AAE1;opacity:1;stroke-width:0.5;" x1="263" x2="3036" y1="1485.54" y2="1485.54"/>
  <line id="left-margin-Regular-M" style="fill:none;stroke:#00AEEF;stroke-width:0.5;opacity:1.0;" x1="1388.21" x2="1388.21" y1="1030.79" y2="1150.12"/>
  <line id="right-margin-Regular-M" style="fill:none;stroke:#00AEEF;stroke-width:0.5;opacity:1.0;" x1="1511.48" x2="1511.48" y1="1030.79" y2="1150.12"/>
 </g>
 <g id="Symbols">
  <g id="Black-L" transform="matrix(1 0 0 1 2847.25 1556)">
   <path d="M24.8023-77.3594L147.451-77.3594Q151.161-77.3594 153.686-80.0784Q156.211-82.7974 156.211-86.3698Q156.211-90.059 153.686-92.7195Q151.161-95.3801 147.451-95.3801L24.8023-95.3801Q21.1715-95.3801 18.6277-92.6903Q16.084-90.0006 16.084-86.3698Q16.084-82.9142 18.6277-80.1368Q21.1715-77.3594 24.8023-77.3594ZM24.8023-44.3057L147.451-44.3057Q151.161-44.3057 153.686-47.035Q156.211-49.7644 156.211-53.3368Q156.211-57.026 153.686-59.6866Q151.161-62.3471 147.451-62.3471L24.8023-62.3471Q21.1715-62.3471 18.6277-59.6574Q16.084-56.9676 16.084-53.3368Q16.084-49.8812 18.6277-47.0935Q21.1715-44.3057 24.8023-44.3057ZM24.8023-11.2143L147.451-11.2143Q151.161-11.2143 153.686-13.9437Q156.211-16.6731 156.211-20.2454Q156.211-23.9334 153.686-26.5946Q151.161-29.2557 147.451-29.2557L24.8023-29.2557Q21.1715-29.2557 18.6277-26.5654Q16.084-23.875 16.084-20.2454Q16.084-16.7899 18.6277-14.0021Q21.1715-11.2143 24.8023-11.2143ZM24.8023 21.8187L147.451 21.8187Q151.161 21.8187 153.686 19.0997Q156.211 16.3807 156.211 12.7875Q156.211 9.09954 153.686 6.43838Q151.161 3.77722 147.451 3.77722L24.8023 3.77722Q21.1715 3.77722 18.6277 6.46758Q16.084 9.15794 16.084 12.7875Q16.084 16.2639 18.6277 19.0413Q21.1715 21.8187 24.8023 21.8187Z"/>
  </g>
  <g id="Heavy-L" transform="matrix(1 0 0 1 2552.17 1556)">
   <path d="M23.7908-78.1046L145.19-78.1046Q148.481-78.1046 150.719-80.4838Q152.957-82.8631 152.957-86.0345Q152.957-89.2953 150.719-91.6299Q148.481-93.9645 145.19-93.9645L23.7908-93.9645Q20.5748-93.9645 18.3294-91.6076Q16.084-89.2506 16.084-86.0345Q16.084-82.9523 18.3294-80.5284Q20.5748-78.1046 23.7908-78.1046ZM23.7908-45.0464L145.19-45.0464Q148.481-45.0464 150.719-47.4407Q152.957-49.8351 152.957-53.0065Q152.957-56.2672 150.719-58.6019Q148.481-60.9365 145.19-60.9365L23.7908-60.9365Q20.5748-60.9365 18.3294-58.5796Q16.084-56.2226 16.084-53.0065Q16.084-49.9243 18.3294-47.4854Q20.5748-45.0464 23.7908-45.0464ZM23.7908-11.9738L145.19-11.9738Q148.481-11.9738 150.719-14.3681Q152.957-16.7624 152.957-19.9339Q152.957-23.189 150.719-25.5264Q148.481-27.8638 145.19-27.8638L23.7908-27.8638Q20.5748-27.8638 18.3294-25.5041Q16.084-23.1443 16.084-19.9339Q16.084-16.8517 18.3294-14.4127Q20.5748-11.9738 23.7908-11.9738ZM23.7908 21.0542L145.19 21.0542Q148.481 21.0542 150.719 18.675Q152.957 16.2957 152.957 13.0942Q152.957 9.83906 150.719 7.50165Q148.481 5.16423 145.19 5.16423L23.7908 5.16423Q20.5748 5.16423 18.3294 7.52396Q16.084 9.88368 16.084 13.0942Q16.084 16.2065 18.3294 18.6304Q20.5748 21.0542 23.7908 21.0542Z"/>
  </g>
  <g id="Bold-L" transform="matrix(1 0 0 1 2257.41 1556)">
   <path d="M22.5308-79.0639L142.534-79.0639Q145.303-79.0639 147.18-81.0243Q149.057-82.9847 149.057-85.6568Q149.057-88.3874 147.18-90.3186Q145.303-92.2499 142.534-92.2499L22.5308-92.2499Q19.8296-92.2499 17.9568-90.304Q16.084-88.3582 16.084-85.6568Q16.084-83.0431 17.9568-81.0535Q19.8296-79.0639 22.5308-79.0639ZM22.5308-45.9982L142.534-45.9982Q145.303-45.9982 147.18-47.9775Q149.057-49.9569 149.057-52.6289Q149.057-55.3596 147.18-57.2908Q145.303-59.222 142.534-59.222L22.5308-59.222Q19.8296-59.222 17.9568-57.2762Q16.084-55.3304 16.084-52.6289Q16.084-50.0153 17.9568-48.0067Q19.8296-45.9982 22.5308-45.9982ZM22.5308-12.9411L142.534-12.9411Q145.303-12.9411 147.18-14.9205Q149.057-16.8999 149.057-19.5719Q149.057-22.2892 147.18-24.227Q145.303-26.1648 142.534-26.1648L22.5308-26.1648Q19.8296-26.1648 17.9568-24.2124Q16.084-22.26 16.084-19.5719Q16.084-16.9583 17.9568-14.9497Q19.8296-12.9411 22.5308-12.9411ZM22.5308 20.0867L142.534 20.0867Q145.303 20.0867 147.18 18.1263Q149.057 16.1658 149.057 13.4559Q149.057 10.7386 147.18 8.80081Q145.303 6.86304 142.534 6.86304L22.5308 6.86304Q19.8296 6.86304 17.9568 8.81542Q16.084 10.7678 16.084 13.4559Q16.084 16.1074 17.9568 18.097Q19.8296 20.0867 22.5308 20.0867Z"/>
  </g>
  <g id="Semibold-L" transform="matrix(1 0 0 1 1962.04 1556)">
   <path d="M21.6622-79.7252L140.704-79.7252Q143.112-79.7252 144.74-81.3969Q146.369-83.0686 146.369-85.3963Q146.369-87.7616 144.74-89.4147Q143.112-91.0678 140.704-91.0678L21.6622-91.0678Q19.3159-91.0678 17.6999-89.4054Q16.084-87.743 16.084-85.3963Q16.084-83.1057 17.6999-81.4155Q19.3159-79.7252 21.6622-79.7252ZM21.6622-46.6543L140.704-46.6543Q143.112-46.6543 144.74-48.3476Q146.369-50.0409 146.369-52.3687Q146.369-54.7339 144.74-56.387Q143.112-58.0401 140.704-58.0401L21.6622-58.0401Q19.3159-58.0401 17.6999-56.3777Q16.084-54.7153 16.084-52.3687Q16.084-50.078 17.6999-48.3662Q19.3159-46.6543 21.6622-46.6543ZM21.6622-13.608L140.704-13.608Q143.112-13.608 144.74-15.3013Q146.369-16.9946 146.369-19.3224Q146.369-21.669 144.74-23.3312Q143.112-24.9935 140.704-24.9935L21.6622-24.9935Q19.3159-24.9935 17.6999-23.322Q16.084-21.6504 16.084-19.3224Q16.084-17.0318 17.6999-15.3199Q19.3159-13.608 21.6622-13.608ZM21.6622 19.4196L140.704 19.4196Q143.112 19.4196 144.74 17.748Q146.369 16.0763 146.369 13.7053Q146.369 11.3587 144.74 9.69645Q143.112 8.03418 140.704 8.03418L21.6622 8.03418Q19.3159 8.03418 17.6999 9.70574Q16.084 11.3773 16.084 13.7053Q16.084 16.0391 17.6999 17.7294Q19.3159 19.4196 21.6622 19.4196Z"/>
  </g>
  <g id="Medium-L" transform="matrix(1 0 0 1 1666.35 1556)">
   <path d="M21.0036-80.2267L139.316-80.2267Q141.451-80.2267 142.89-81.6794Q144.33-83.1322 144.33-85.1989Q144.33-87.287 142.89-88.7292Q141.451-90.1715 139.316-90.1715L21.0036-90.1715Q18.9264-90.1715 17.5052-88.724Q16.084-87.2765 16.084-85.1989Q16.084-83.1532 17.5052-81.6899Q18.9264-80.2267 21.0036-80.2267ZM21.0036-47.1518L139.316-47.1518Q141.451-47.1518 142.89-48.6282Q144.33-50.1046 144.33-52.1713Q144.33-54.2594 142.89-55.7016Q141.451-57.1439 139.316-57.1439L21.0036-57.1439Q18.9264-57.1439 17.5052-55.6964Q16.084-54.2489 16.084-52.1713Q16.084-50.1256 17.5052-48.6387Q18.9264-47.1518 21.0036-47.1518ZM21.0036-14.1137L139.316-14.1137Q141.451-14.1137 142.89-15.5901Q144.33-17.0665 144.33-19.1332Q144.33-21.1987 142.89-22.652Q141.451-24.1054 139.316-24.1054L21.0036-24.1054Q18.9264-24.1054 17.5052-22.6468Q16.084-21.1881 16.084-19.1332Q16.084-17.0875 17.5052-15.6006Q18.9264-14.1137 21.0036-14.1137ZM21.0036 18.9139L139.316 18.9139Q141.451 18.9139 142.89 17.4611Q144.33 16.0084 144.33 13.8944Q144.33 11.8289 142.89 10.3756Q141.451 8.92219 139.316 8.92219L21.0036 8.92219Q18.9264 8.92219 17.5052 10.3808Q16.084 11.8394 16.084 13.8944Q16.084 15.9874 17.5052 17.4506Q18.9264 18.9139 21.0036 18.9139Z"/>
  </g>
  <g id="Regular-L" transform="matrix(1 0 0 1 1370.97 1556)">
   <path d="M20.1446-80.8807L137.505-80.8807Q139.284-80.8807 140.478-82.0479Q141.671-83.2151 141.671-84.9413Q141.671-86.668 140.478-87.8352Q139.284-89.0024 137.505-89.0024L20.1446-89.0024Q18.4183-89.0024 17.2512-87.8352Q16.084-86.668 16.084-84.9413Q16.084-83.2151 17.2512-82.0479Q18.4183-80.8807 20.1446-80.8807ZM20.1446-47.8007L137.505-47.8007Q139.284-47.8007 140.478-48.9942Q141.671-50.1876 141.671-51.9139Q141.671-53.6406 140.478-54.8077Q139.284-55.9749 137.505-55.9749L20.1446-55.9749Q18.4183-55.9749 17.2512-54.8077Q16.084-53.6406 16.084-51.9139Q16.084-50.1876 17.2512-48.9942Q18.4183-47.8007 20.1446-47.8007ZM20.1446-14.7733L137.505-14.7733Q139.284-14.7733 140.478-15.9667Q141.671-17.1602 141.671-18.8864Q141.671-20.5852 140.478-21.7661Q139.284-22.947 137.505-22.947L20.1446-22.947Q18.4183-22.947 17.2512-21.7661Q16.084-20.5852 16.084-18.8864Q16.084-17.1602 17.2512-15.9667Q18.4183-14.7733 20.1446-14.7733ZM20.1446 18.2542L137.505 18.2542Q139.284 18.2542 140.478 17.087Q141.671 15.9198 141.671 14.1411Q141.671 12.4422 140.478 11.2614Q139.284 10.0805 137.505 10.0805L20.1446 10.0805Q18.4183 10.0805 17.2512 11.2614Q16.084 12.4422 16.084 14.1411Q16.084 15.9198 17.2512 17.087Q18.4183 18.2542 20.1446 18.2542Z"/>
  </g>
  <g id="Light-L" transform="matrix(1 0 0 1 1075.18 1556)">
   <path d="M19.2285-81.7776L136.608-81.7776Q138.005-81.7776 138.913-82.6681Q139.82-83.5585 139.82-84.9221Q139.82-86.2864 138.913-87.1769Q138.005-88.0674 136.608-88.0674L19.2285-88.0674Q17.8649-88.0674 16.9744-87.1769Q16.084-86.2864 16.084-84.9221Q16.084-83.5585 16.9744-82.6681Q17.8649-81.7776 19.2285-81.7776ZM19.2285-48.6787L136.608-48.6787Q138.005-48.6787 138.913-49.5858Q139.82-50.4929 139.82-51.8565Q139.82-53.2208 138.913-54.1113Q138.005-55.0017 136.608-55.0017L19.2285-55.0017Q17.8649-55.0017 16.9744-54.1113Q16.084-53.2208 16.084-51.8565Q16.084-50.4929 16.9744-49.5858Q17.8649-48.6787 19.2285-48.6787ZM19.2285-15.6131L136.608-15.6131Q138.005-15.6131 138.913-16.5202Q139.82-17.4273 139.82-18.7909Q139.82-20.1081 138.913-21.0217Q138.005-21.9353 136.608-21.9353L19.2285-21.9353Q17.8649-21.9353 16.9744-21.0217Q16.084-20.1081 16.084-18.7909Q16.084-17.4273 16.9744-16.5202Q17.8649-15.6131 19.2285-15.6131ZM19.2285 17.4525L136.608 17.4525Q138.005 17.4525 138.913 16.5621Q139.82 15.6716 139.82 14.2748Q139.82 12.9575 138.913 12.0439Q138.005 11.1303 136.608 11.1303L19.2285 11.1303Q17.8649 11.1303 16.9744 12.0439Q16.084 12.9575 16.084 14.2748Q16.084 15.6716 16.9744 16.5621Q17.8649 17.4525 19.2285 17.4525Z"/>
  </g>
  <g id="Thin-L" transform="matrix(1 0 0 1 779.695 1556)">
   <path d="M18.0168-82.9638L135.422-82.9638Q136.314-82.9638 136.843-83.4883Q137.372-84.0127 137.372-84.8966Q137.372-85.7818 136.843-86.3062Q136.314-86.8307 135.422-86.8307L18.0168-86.8307Q17.1329-86.8307 16.6084-86.3062Q16.084-85.7818 16.084-84.8966Q16.084-84.0127 16.6084-83.4883Q17.1329-82.9638 18.0168-82.9638ZM18.0168-49.8399L135.422-49.8399Q136.314-49.8399 136.843-50.3683Q137.372-50.8967 137.372-51.7806Q137.372-52.6657 136.843-53.1901Q136.314-53.7146 135.422-53.7146L18.0168-53.7146Q17.1329-53.7146 16.6084-53.1901Q16.084-52.6657 16.084-51.7806Q16.084-50.8967 16.6084-50.3683Q17.1329-49.8399 18.0168-49.8399ZM18.0168-16.7238L135.422-16.7238Q136.314-16.7238 136.843-17.2522Q137.372-17.7806 137.372-18.6645Q137.372-19.477 136.843-20.0372Q136.314-20.5973 135.422-20.5973L18.0168-20.5973Q17.1329-20.5973 16.6084-20.0372Q16.084-19.477 16.084-18.6645Q16.084-17.7806 16.6084-17.2522Q17.1329-16.7238 18.0168-16.7238ZM18.0168 16.3923L135.422 16.3923Q136.314 16.3923 136.843 15.8678Q137.372 15.3434 137.372 14.4516Q137.372 13.6391 136.843 13.0789Q136.314 12.5188 135.422 12.5188L18.0168 12.5188Q17.1329 12.5188 16.6084 13.0789Q16.084 13.6391 16.084 14.4516Q16.084 15.3434 16.6084 15.8678Q17.1329 16.3923 18.0168 16.3923Z"/>
  </g>
  <g id="Ultralight-L" transform="matrix(1 0 0 1 483.61 1556)">
   <path d="M17.3962-83.5714L134.814-83.5714Q135.448-83.5714 135.783-83.9084Q136.118-84.2454 136.118-84.8836Q136.118-85.5233 135.783-85.8603Q135.448-86.1973 134.814-86.1973L17.3962-86.1973Q16.758-86.1973 16.421-85.8603Q16.084-85.5233 16.084-84.8836Q16.084-84.2454 16.421-83.9084Q16.758-83.5714 17.3962-83.5714ZM17.3962-50.4346L134.814-50.4346Q135.448-50.4346 135.783-50.769Q136.118-51.1034 136.118-51.7417Q136.118-52.3813 135.783-52.7183Q135.448-53.0554 134.814-53.0554L17.3962-53.0554Q16.758-53.0554 16.421-52.7183Q16.084-52.3813 16.084-51.7417Q16.084-51.1034 16.421-50.769Q16.758-50.4346 17.3962-50.4346ZM17.3962-17.2927L134.814-17.2927Q135.448-17.2927 135.783-17.6271Q136.118-17.9615 136.118-18.5997Q136.118-19.1538 135.783-19.5329Q135.448-19.912 134.814-19.912L17.3962-19.912Q16.758-19.912 16.421-19.5329Q16.084-19.1538 16.084-18.5997Q16.084-17.9615 16.421-17.6271Q16.758-17.2927 17.3962-17.2927ZM17.3962 15.8493L134.814 15.8493Q135.448 15.8493 135.783 15.5123Q136.118 15.1753 136.118 14.5422Q136.118 13.9881 135.783 13.609Q135.448 13.23 134.814 13.23L17.3962 13.23Q16.758 13.23 16.421 13.609Q16.084 13.9881 16.084 14.5422Q16.084 15.1753 16.421 15.5123Q16.758 15.8493 17.3962 15.8493Z"/>
  </g>
  <g id="Black-M" transform="matrix(1 0 0 1 2865.38 1126)">
   <path d="M19.9605-67.3505L116.059-67.3505Q119.241-67.3505 121.405-69.7114Q123.569-72.0724 123.569-75.1355Q123.569-78.3129 121.405-80.6167Q119.241-82.9206 116.059-82.9206L19.9605-82.9206Q16.8403-82.9206 14.6506-80.5882Q12.4609-78.2558 12.4609-75.1355Q12.4609-72.1866 14.6506-69.7685Q16.8403-67.3505 19.9605-67.3505ZM19.9605-41.7435L116.059-41.7435Q119.241-41.7435 121.405-44.1072Q123.569-46.471 123.569-49.5341Q123.569-52.7114 121.405-55.0153Q119.241-57.3192 116.059-57.3192L19.9605-57.3192Q16.8403-57.3192 14.6506-54.9867Q12.4609-52.6543 12.4609-49.5341Q12.4609-46.5852 14.6506-44.1643Q16.8403-41.7435 19.9605-41.7435ZM19.9605-16.085L116.059-16.085Q119.241-16.085 121.405-18.4487Q123.569-20.8124 123.569-23.8755Q123.569-27.0531 121.405-29.3569Q119.241-31.6606 116.059-31.6606L19.9605-31.6606Q16.8403-31.6606 14.6506-29.3283Q12.4609-26.996 12.4609-23.8755Q12.4609-20.9266 14.6506-18.5058Q16.8403-16.085 19.9605-16.085ZM19.9605 9.51648L116.059 9.51648Q119.241 9.51648 121.405 7.15551Q123.569 4.79453 123.569 1.72591Q123.569-1.45169 121.405-3.75542Q119.241-6.05916 116.059-6.05916L19.9605-6.05916Q16.8403-6.05916 14.6506-3.72687Q12.4609-1.39459 12.4609 1.72591Q12.4609 4.68034 14.6506 7.09841Q16.8403 9.51648 19.9605 9.51648Z"/>
  </g>
  <g id="Heavy-M" transform="matrix(1 0 0 1 2570.18 1126)">
   <path d="M19.0563-67.9961L113.931-67.9961Q116.739-67.9961 118.649-70.0505Q120.559-72.1049 120.559-74.8096Q120.559-77.6015 118.649-79.6123Q116.739-81.623 113.931-81.623L19.0563-81.623Q16.308-81.623 14.3845-79.5904Q12.4609-77.5578 12.4609-74.8096Q12.4609-72.1922 14.3845-70.0942Q16.308-67.9961 19.0563-67.9961ZM19.0563-42.3867L113.931-42.3867Q116.739-42.3867 118.649-44.4493Q120.559-46.5119 120.559-49.2165Q120.559-52.0084 118.649-54.0192Q116.739-56.0299 113.931-56.0299L19.0563-56.0299Q16.308-56.0299 14.3845-53.9974Q12.4609-51.9648 12.4609-49.2165Q12.4609-46.5991 14.3845-44.4929Q16.308-42.3867 19.0563-42.3867ZM19.0563-16.7499L113.931-16.7499Q116.739-16.7499 118.649-18.8125Q120.559-20.8751 120.559-23.5798Q120.559-26.3694 118.649-28.3813Q116.739-30.3932 113.931-30.3932L19.0563-30.3932Q16.308-30.3932 14.3845-28.3595Q12.4609-26.3258 12.4609-23.5798Q12.4609-20.9624 14.3845-18.8562Q16.308-16.7499 19.0563-16.7499ZM19.0563 8.84314L113.931 8.84314Q116.739 8.84314 118.649 6.78874Q120.559 4.73433 120.559 2.01332Q120.559-0.776288 118.649-2.7882Q116.739-4.80011 113.931-4.80011L19.0563-4.80011Q16.308-4.80011 14.3845-2.76639Q12.4609-0.732667 12.4609 2.01332Q12.4609 4.64709 14.3845 6.74512Q16.308 8.84314 19.0563 8.84314Z"/>
  </g>
  <g id="Bold-M" transform="matrix(1 0 0 1 2275.15 1126)">
   <path d="M18.0447-68.7184L111.55-68.7184Q113.94-68.7184 115.565-70.4299Q117.191-72.1413 117.191-74.4449Q117.191-76.8057 115.565-78.4886Q113.94-80.1715 111.55-80.1715L18.0447-80.1715Q15.7126-80.1715 14.0868-78.4743Q12.4609-76.7771 12.4609-74.4449Q12.4609-72.1984 14.0868-70.4584Q15.7126-68.7184 18.0447-68.7184ZM18.0447-43.1061L111.55-43.1061Q113.94-43.1061 115.565-44.8318Q117.191-46.5576 117.191-48.8612Q117.191-51.222 115.565-52.9049Q113.94-54.5878 111.55-54.5878L18.0447-54.5878Q15.7126-54.5878 14.0868-52.8906Q12.4609-51.1934 12.4609-48.8612Q12.4609-46.6147 14.0868-44.8604Q15.7126-43.1061 18.0447-43.1061ZM18.0447-17.4938L111.55-17.4938Q113.94-17.4938 115.565-19.2196Q117.191-20.9453 117.191-23.2489Q117.191-25.6045 115.565-27.29Q113.94-28.9754 111.55-28.9754L18.0447-28.9754Q15.7126-28.9754 14.0868-27.2757Q12.4609-25.5759 12.4609-23.2489Q12.4609-21.0024 14.0868-19.2481Q15.7126-17.4938 18.0447-17.4938ZM18.0447 8.08992L111.55 8.08992Q113.94 8.08992 115.565 6.37846Q117.191 4.66699 117.191 2.33483Q117.191-0.0207597 115.565-1.70622Q113.94-3.39168 111.55-3.39168L18.0447-3.39168Q15.7126-3.39168 14.0868-1.69195Q12.4609 0.00778852 12.4609 2.33483Q12.4609 4.6099 14.0868 6.34991Q15.7126 8.08992 18.0447 8.08992Z"/>
  </g>
  <g id="Semibold-M" transform="matrix(1 0 0 1 1979.6 1126)">
   <path d="M17.3474-69.2163L109.909-69.2163Q112.01-69.2163 113.44-70.6914Q114.87-72.1664 114.87-74.1935Q114.87-76.2571 113.44-77.714Q112.01-79.1709 109.909-79.1709L17.3474-79.1709Q15.3021-79.1709 13.8815-77.7049Q12.4609-76.2389 12.4609-74.1935Q12.4609-72.2027 13.8815-70.7095Q15.3021-69.2163 17.3474-69.2163ZM17.3474-43.6021L109.909-43.6021Q112.01-43.6021 113.44-45.0956Q114.87-46.5891 114.87-48.6163Q114.87-50.6798 113.44-52.1367Q112.01-53.5936 109.909-53.5936L17.3474-53.5936Q15.3021-53.5936 13.8815-52.1276Q12.4609-50.6616 12.4609-48.6163Q12.4609-46.6255 13.8815-45.1138Q15.3021-43.6021 17.3474-43.6021ZM17.3474-18.0066L109.909-18.0066Q112.01-18.0066 113.44-19.5002Q114.87-20.9937 114.87-23.0208Q114.87-25.0772 113.44-26.5376Q112.01-27.998 109.909-27.998L17.3474-27.998Q15.3021-27.998 13.8815-26.5285Q12.4609-25.059 12.4609-23.0208Q12.4609-21.03 13.8815-19.5183Q15.3021-18.0066 17.3474-18.0066ZM17.3474 7.57066L109.909 7.57066Q112.01 7.57066 113.44 6.09561Q114.87 4.62057 114.87 2.55648Q114.87 0.500097 113.44-0.960312Q112.01-2.42072 109.909-2.42072L17.3474-2.42072Q15.3021-2.42072 13.8815-0.951234Q12.4609 0.518254 12.4609 2.55648Q12.4609 4.58426 13.8815 6.07746Q15.3021 7.57066 17.3474 7.57066Z"/>
  </g>
  <g id="Medium-M" transform="matrix(1 0 0 1 1683.77 1126)">
   <path d="M16.8186-69.5939L108.665-69.5939Q110.546-69.5939 111.828-70.8897Q113.11-72.1855 113.11-74.0029Q113.11-75.8411 111.828-77.1266Q110.546-78.4121 108.665-78.4121L16.8186-78.4121Q14.9908-78.4121 13.7259-77.1215Q12.4609-75.8308 12.4609-74.0029Q12.4609-72.206 13.7259-70.9Q14.9908-69.5939 16.8186-69.5939ZM16.8186-43.9781L108.665-43.9781Q110.546-43.9781 111.828-45.2956Q113.11-46.6131 113.11-48.4305Q113.11-50.2687 111.828-51.5542Q110.546-52.8397 108.665-52.8397L16.8186-52.8397Q14.9908-52.8397 13.7259-51.5491Q12.4609-50.2584 12.4609-48.4305Q12.4609-46.6336 13.7259-45.3059Q14.9908-43.9781 16.8186-43.9781ZM16.8186-18.3955L108.665-18.3955Q110.546-18.3955 111.828-19.7129Q113.11-21.0304 113.11-22.8479Q113.11-24.6774 111.828-25.9671Q110.546-27.2569 108.665-27.2569L16.8186-27.2569Q14.9908-27.2569 13.7259-25.962Q12.4609-24.6671 12.4609-22.8479Q12.4609-21.0509 13.7259-19.7232Q14.9908-18.3955 16.8186-18.3955ZM16.8186 7.17693L108.665 7.17693Q110.546 7.17693 111.828 5.88115Q113.11 4.58537 113.11 2.72454Q113.11 0.895033 111.828-0.394733Q110.546-1.6845 108.665-1.6845L16.8186-1.6845Q14.9908-1.6845 13.7259-0.389594Q12.4609 0.90531 12.4609 2.72454Q12.4609 4.56481 13.7259 5.87087Q14.9908 7.17693 16.8186 7.17693Z"/>
  </g>
  <g id="Regular-M" transform="matrix(1 0 0 1 1388.21 1126)">
   <path d="M16.1289-70.0864L107.042-70.0864Q108.638-70.0864 109.726-71.1483Q110.814-72.2103 110.814-73.7543Q110.814-75.2985 109.726-76.3605Q108.638-77.4224 107.042-77.4224L16.1289-77.4224Q14.5849-77.4224 13.5229-76.3605Q12.4609-75.2985 12.4609-73.7543Q12.4609-72.2103 13.5229-71.1483Q14.5849-70.0864 16.1289-70.0864ZM16.1289-44.4687L107.042-44.4687Q108.638-44.4687 109.726-45.5565Q110.814-46.6442 110.814-48.1883Q110.814-49.7325 109.726-50.7945Q108.638-51.8564 107.042-51.8564L16.1289-51.8564Q14.5849-51.8564 13.5229-50.7945Q12.4609-49.7325 12.4609-48.1883Q12.4609-46.6442 13.5229-45.5565Q14.5849-44.4687 16.1289-44.4687ZM16.1289-18.9026L107.042-18.9026Q108.638-18.9026 109.726-19.9904Q110.814-21.0782 110.814-22.6223Q110.814-24.1559 109.726-25.223Q108.638-26.2902 107.042-26.2902L16.1289-26.2902Q14.5849-26.2902 13.5229-25.223Q12.4609-24.1559 12.4609-22.6223Q12.4609-21.0782 13.5229-19.9904Q14.5849-18.9026 16.1289-18.9026ZM16.1289 6.66337L107.042 6.66337Q108.638 6.66337 109.726 5.60141Q110.814 4.53945 110.814 2.94375Q110.814 1.41017 109.726 0.342979Q108.638-0.724207 107.042-0.724207L16.1289-0.724207Q14.5849-0.724207 13.5229 0.342979Q12.4609 1.41017 12.4609 2.94375Q12.4609 4.53945 13.5229 5.60141Q14.5849 6.66337 16.1289 6.66337Z"/>
  </g>
  <g id="Light-M" transform="matrix(1 0 0 1 1092.33 1126)">
   <path d="M15.3075-70.8904L106.238-70.8904Q107.491-70.8904 108.323-71.7043Q109.154-72.5182 109.154-73.7371Q109.154-74.9564 108.323-75.7703Q107.491-76.5841 106.238-76.5841L15.3075-76.5841Q14.0887-76.5841 13.2748-75.7703Q12.4609-74.9564 12.4609-73.7371Q12.4609-72.5182 13.2748-71.7043Q14.0887-70.8904 15.3075-70.8904ZM15.3075-45.2558L106.238-45.2558Q107.491-45.2558 108.323-46.0869Q109.154-46.9179 109.154-48.1368Q109.154-49.3562 108.323-50.17Q107.491-50.9839 106.238-50.9839L15.3075-50.9839Q14.0887-50.9839 13.2748-50.17Q12.4609-49.3562 12.4609-48.1368Q12.4609-46.9179 13.2748-46.0869Q14.0887-45.2558 15.3075-45.2558ZM15.3075-19.6556L106.238-19.6556Q107.491-19.6556 108.323-20.4866Q109.154-21.3177 109.154-22.5366Q109.154-23.7281 108.323-24.5556Q107.491-25.3832 106.238-25.3832L15.3075-25.3832Q14.0887-25.3832 13.2748-24.5556Q12.4609-23.7281 12.4609-22.5366Q12.4609-21.3177 13.2748-20.4866Q14.0887-19.6556 15.3075-19.6556ZM15.3075 5.94466L106.238 5.94466Q107.491 5.94466 108.323 5.1308Q109.154 4.31694 109.154 3.06363Q109.154 1.87215 108.323 1.04459Q107.491 0.217017 106.238 0.217017L15.3075 0.217017Q14.0887 0.217017 13.2748 1.04459Q12.4609 1.87215 12.4609 3.06363Q12.4609 4.31694 13.2748 5.1308Q14.0887 5.94466 15.3075 5.94466Z"/>
  </g>
  <g id="Thin-M" transform="matrix(1 0 0 1 796.712 1126)">
   <path d="M14.2213-71.9539L105.174-71.9539Q105.975-71.9539 106.467-72.4397Q106.959-72.9254 106.959-73.7142Q106.959-74.504 106.467-74.9897Q105.975-75.4754 105.174-75.4754L14.2213-75.4754Q13.4324-75.4754 12.9467-74.9897Q12.4609-74.504 12.4609-73.7142Q12.4609-72.9254 12.9467-72.4397Q13.4324-71.9539 14.2213-71.9539ZM14.2213-46.2968L105.174-46.2968Q105.975-46.2968 106.467-46.7884Q106.959-47.2799 106.959-48.0688Q106.959-48.8585 106.467-49.3442Q105.975-49.8299 105.174-49.8299L14.2213-49.8299Q13.4324-49.8299 12.9467-49.3442Q12.4609-48.8585 12.4609-48.0688Q12.4609-47.2799 12.9467-46.7884Q13.4324-46.2968 14.2213-46.2968ZM14.2213-20.6514L105.174-20.6514Q105.975-20.6514 106.467-21.1429Q106.959-21.6344 106.959-22.4233Q106.959-23.1623 106.467-23.673Q105.975-24.1836 105.174-24.1836L14.2213-24.1836Q13.4324-24.1836 12.9467-23.673Q12.4609-23.1623 12.4609-22.4233Q12.4609-21.6344 12.9467-21.1429Q13.4324-20.6514 14.2213-20.6514ZM14.2213 4.9941L105.174 4.9941Q105.975 4.9941 106.467 4.50838Q106.959 4.02265 106.959 3.22218Q106.959 2.48317 106.467 1.97252Q105.975 1.46186 105.174 1.46186L14.2213 1.46186Q13.4324 1.46186 12.9467 1.97252Q12.4609 2.48317 12.4609 3.22218Q12.4609 4.02265 12.9467 4.50838Q13.4324 4.9941 14.2213 4.9941Z"/>
  </g>
  <g id="Ultralight-M" transform="matrix(1 0 0 1 500.564 1126)">
   <path d="M13.6649-72.4986L104.63-72.4986Q105.198-72.4986 105.516-72.8163Q105.835-73.134 105.835-73.7026Q105.835-74.2722 105.516-74.5899Q105.198-74.9075 104.63-74.9075L13.6649-74.9075Q13.0963-74.9075 12.7786-74.5899Q12.4609-74.2722 12.4609-73.7026Q12.4609-73.134 12.7786-72.8163Q13.0963-72.4986 13.6649-72.4986ZM13.6649-46.8301L104.63-46.8301Q105.198-46.8301 105.516-47.1477Q105.835-47.4653 105.835-48.0339Q105.835-48.6036 105.516-48.9212Q105.198-49.2389 104.63-49.2389L13.6649-49.2389Q13.0963-49.2389 12.7786-48.9212Q12.4609-48.6036 12.4609-48.0339Q12.4609-47.4653 12.7786-47.1477Q13.0963-46.8301 13.6649-46.8301ZM13.6649-21.1614L104.63-21.1614Q105.198-21.1614 105.516-21.479Q105.835-21.7967 105.835-22.3653Q105.835-22.8725 105.516-23.2209Q105.198-23.5692 104.63-23.5692L13.6649-23.5692Q13.0963-23.5692 12.7786-23.2209Q12.4609-22.8725 12.4609-22.3653Q12.4609-21.7967 12.7786-21.479Q13.0963-21.1614 13.6649-21.1614ZM13.6649 4.50723L104.63 4.50723Q105.198 4.50723 105.516 4.18957Q105.835 3.87191 105.835 3.30339Q105.835 2.79613 105.516 2.4478Q105.198 2.09946 104.63 2.09946L13.6649 2.09946Q13.0963 2.09946 12.7786 2.4478Q12.4609 2.79613 12.4609 3.30339Q12.4609 3.87191 12.7786 4.18957Q13.0963 4.50723 13.6649 4.50723Z"/>
  </g>
  <g id="Black-S" transform="matrix(1 0 0 1 2879.69 696)">
   <path d="M15.8691-60.2539L91.5527-60.2539Q94.1406-60.2539 95.8984-62.1826Q97.6562-64.1113 97.6562-66.6016Q97.6562-69.1895 95.8984-71.0693Q94.1406-72.9492 91.5527-72.9492L15.8691-72.9492Q13.3301-72.9492 11.5479-71.0449Q9.76562-69.1406 9.76562-66.6016Q9.76562-64.209 11.5479-62.2314Q13.3301-60.2539 15.8691-60.2539ZM15.8691-40.1855L91.5527-40.1855Q94.1406-40.1855 95.8984-42.1143Q97.6562-44.043 97.6562-46.5332Q97.6562-49.1211 95.8984-51.001Q94.1406-52.8809 91.5527-52.8809L15.8691-52.8809Q13.3301-52.8809 11.5479-50.9766Q9.76562-49.0723 9.76562-46.5332Q9.76562-44.1406 11.5479-42.1631Q13.3301-40.1855 15.8691-40.1855ZM15.8691-20.0684L91.5527-20.0684Q94.1406-20.0684 95.8984-21.9971Q97.6562-23.9258 97.6562-26.416Q97.6562-29.0039 95.8984-30.8838Q94.1406-32.7637 91.5527-32.7637L15.8691-32.7637Q13.3301-32.7637 11.5479-30.8594Q9.76562-28.9551 9.76562-26.416Q9.76562-24.0234 11.5479-22.0459Q13.3301-20.0684 15.8691-20.0684ZM15.8691 0L91.5527 0Q94.1406 0 95.8984-1.92871Q97.6562-3.85742 97.6562-6.34766Q97.6562-8.93555 95.8984-10.8154Q94.1406-12.6953 91.5527-12.6953L15.8691-12.6953Q13.3301-12.6953 11.5479-10.791Q9.76562-8.88672 9.76562-6.34766Q9.76562-3.95508 11.5479-1.97754Q13.3301 0 15.8691 0Z"/>
  </g>
  <g id="Heavy-S" transform="matrix(1 0 0 1 2584.16 696)">
   <path d="M15.2007-60.7034L89.8356-60.7034Q92.1469-60.7034 93.7203-62.4016Q95.2937-64.0998 95.2937-66.325Q95.2937-68.6248 93.7203-70.2857Q92.1469-71.9466 89.8356-71.9466L15.2007-71.9466Q12.9382-71.9466 11.3519-70.267Q9.76562-68.5875 9.76562-66.325Q9.76562-64.1744 11.3519-62.4389Q12.9382-60.7034 15.2007-60.7034ZM15.2007-40.635L89.8356-40.635Q92.1469-40.635 93.7203-42.339Q95.2937-44.043 95.2937-46.2681Q95.2937-48.5679 93.7203-50.2288Q92.1469-51.8898 89.8356-51.8898L15.2007-51.8898Q12.9382-51.8898 11.3519-50.2102Q9.76562-48.5306 9.76562-46.2681Q9.76562-44.1176 11.3519-42.3763Q12.9382-40.635 15.2007-40.635ZM15.2007-20.5409L89.8356-20.5409Q92.1469-20.5409 93.7203-22.2448Q95.2937-23.9488 95.2937-26.174Q95.2937-28.4738 93.7203-30.1347Q92.1469-31.7956 89.8356-31.7956L15.2007-31.7956Q12.9382-31.7956 11.3519-30.116Q9.76562-28.4365 9.76562-26.174Q9.76562-24.0234 11.3519-22.2821Q12.9382-20.5409 15.2007-20.5409ZM15.2007-0.484028L89.8356-0.484028Q92.1469-0.484028 93.7203-2.18225Q95.2937-3.88047 95.2937-6.11717Q95.2937-8.41695 93.7203-10.0779Q92.1469-11.7388 89.8356-11.7388L15.2007-11.7388Q12.9382-11.7388 11.3519-10.0592Q9.76562-8.37964 9.76562-6.11717Q9.76562-3.95508 11.3519-2.21955Q12.9382-0.484028 15.2007-0.484028Z"/>
  </g>
  <g id="Bold-S" transform="matrix(1 0 0 1 2288.77 696)">
   <path d="M14.4531-61.2061L87.915-61.2061Q89.917-61.2061 91.2842-62.6465Q92.6514-64.0869 92.6514-66.0156Q92.6514-67.9932 91.2842-69.4092Q89.917-70.8252 87.915-70.8252L14.4531-70.8252Q12.5-70.8252 11.1328-69.397Q9.76562-67.9688 9.76562-66.0156Q9.76562-64.1357 11.1328-62.6709Q12.5-61.2061 14.4531-61.2061ZM14.4531-41.1377L87.915-41.1377Q89.917-41.1377 91.2842-42.5903Q92.6514-44.043 92.6514-45.9717Q92.6514-47.9492 91.2842-49.3652Q89.917-50.7812 87.915-50.7812L14.4531-50.7812Q12.5-50.7812 11.1328-49.353Q9.76562-47.9248 9.76562-45.9717Q9.76562-44.0918 11.1328-42.6147Q12.5-41.1377 14.4531-41.1377ZM14.4531-21.0693L87.915-21.0693Q89.917-21.0693 91.2842-22.522Q92.6514-23.9746 92.6514-25.9033Q92.6514-27.8809 91.2842-29.2969Q89.917-30.7129 87.915-30.7129L14.4531-30.7129Q12.5-30.7129 11.1328-29.2847Q9.76562-27.8564 9.76562-25.9033Q9.76562-24.0234 11.1328-22.5464Q12.5-21.0693 14.4531-21.0693ZM14.4531-1.02539L87.915-1.02539Q89.917-1.02539 91.2842-2.46582Q92.6514-3.90625 92.6514-5.85938Q92.6514-7.83691 91.2842-9.25293Q89.917-10.6689 87.915-10.6689L14.4531-10.6689Q12.5-10.6689 11.1328-9.24072Q9.76562-7.8125 9.76562-5.85938Q9.76562-3.95508 11.1328-2.49023Q12.5-1.02539 14.4531-1.02539Z"/>
  </g>
  <g id="Semibold-S" transform="matrix(1 0 0 1 1992.97 696)">
   <path d="M13.9377-61.5526L86.5909-61.5526Q88.3796-61.5526 89.6046-62.8153Q90.8296-64.078 90.8296-65.8023Q90.8296-67.5577 89.6046-68.8049Q88.3796-70.0521 86.5909-70.0521L13.9377-70.0521Q12.1979-70.0521 10.9817-68.7971Q9.76562-67.5422 9.76562-65.8023Q9.76562-64.1091 10.9817-62.8309Q12.1979-61.5526 13.9377-61.5526ZM13.9377-41.4843L86.5909-41.4843Q88.3796-41.4843 89.6046-42.7636Q90.8296-44.043 90.8296-45.7673Q90.8296-47.5227 89.6046-48.7698Q88.3796-50.017 86.5909-50.017L13.9377-50.017Q12.1979-50.017 10.9817-48.7621Q9.76562-47.5071 9.76562-45.7673Q9.76562-44.074 10.9817-42.7792Q12.1979-41.4843 13.9377-41.4843ZM13.9377-21.4337L86.5909-21.4337Q88.3796-21.4337 89.6046-22.713Q90.8296-23.9924 90.8296-25.7167Q90.8296-27.4721 89.6046-28.7192Q88.3796-29.9664 86.5909-29.9664L13.9377-29.9664Q12.1979-29.9664 10.9817-28.7115Q9.76562-27.4565 9.76562-25.7167Q9.76562-24.0234 10.9817-22.7286Q12.1979-21.4337 13.9377-21.4337ZM13.9377-1.39863L86.5909-1.39863Q88.3796-1.39863 89.6046-2.66133Q90.8296-3.92402 90.8296-5.68164Q90.8296-7.43701 89.6046-8.68418Q88.3796-9.93135 86.5909-9.93135L13.9377-9.93135Q12.1979-9.93135 10.9817-8.67642Q9.76562-7.42148 9.76562-5.68164Q9.76562-3.95508 10.9817-2.67686Q12.1979-1.39863 13.9377-1.39863Z"/>
  </g>
  <g id="Medium-S" transform="matrix(1 0 0 1 1696.95 696)">
   <path d="M13.5469-61.8154L85.5869-61.8154Q87.2139-61.8154 88.3311-62.9434Q89.4482-64.0713 89.4482-65.6406Q89.4482-67.2275 88.3311-68.3467Q87.2139-69.4658 85.5869-69.4658L13.5469-69.4658Q11.9688-69.4658 10.8672-68.3423Q9.76562-67.2188 9.76562-65.6406Q9.76562-64.0889 10.8672-62.9521Q11.9688-61.8154 13.5469-61.8154ZM13.5469-41.7471L85.5869-41.7471Q87.2139-41.7471 88.3311-42.895Q89.4482-44.043 89.4482-45.6123Q89.4482-47.1992 88.3311-48.3184Q87.2139-49.4375 85.5869-49.4375L13.5469-49.4375Q11.9688-49.4375 10.8672-48.314Q9.76562-47.1904 9.76562-45.6123Q9.76562-44.0605 10.8672-42.9038Q11.9688-41.7471 13.5469-41.7471ZM13.5469-21.71L85.5869-21.71Q87.2139-21.71 88.3311-22.8579Q89.4482-24.0059 89.4482-25.5752Q89.4482-27.1621 88.3311-28.2812Q87.2139-29.4004 85.5869-29.4004L13.5469-29.4004Q11.9688-29.4004 10.8672-28.2769Q9.76562-27.1533 9.76562-25.5752Q9.76562-24.0234 10.8672-22.8667Q11.9688-21.71 13.5469-21.71ZM13.5469-1.68164L85.5869-1.68164Q87.2139-1.68164 88.3311-2.80957Q89.4482-3.9375 89.4482-5.54688Q89.4482-7.13379 88.3311-8.25293Q87.2139-9.37207 85.5869-9.37207L13.5469-9.37207Q11.9688-9.37207 10.8672-8.24854Q9.76562-7.125 9.76562-5.54688Q9.76562-3.95508 10.8672-2.81836Q11.9688-1.68164 13.5469-1.68164Z"/>
  </g>
  <g id="Regular-S" transform="matrix(1 0 0 1 1401.14 696)">
   <path d="M13.0371-62.1582L84.2773-62.1582Q85.6934-62.1582 86.6699-63.1104Q87.6465-64.0625 87.6465-65.4297Q87.6465-66.7969 86.6699-67.749Q85.6934-68.7012 84.2773-68.7012L13.0371-68.7012Q11.6699-68.7012 10.7178-67.749Q9.76562-66.7969 9.76562-65.4297Q9.76562-64.0625 10.7178-63.1104Q11.6699-62.1582 13.0371-62.1582ZM13.0371-42.0898L84.2773-42.0898Q85.6934-42.0898 86.6699-43.0664Q87.6465-44.043 87.6465-45.4102Q87.6465-46.7773 86.6699-47.7295Q85.6934-48.6816 84.2773-48.6816L13.0371-48.6816Q11.6699-48.6816 10.7178-47.7295Q9.76562-46.7773 9.76562-45.4102Q9.76562-44.043 10.7178-43.0664Q11.6699-42.0898 13.0371-42.0898ZM13.0371-22.0703L84.2773-22.0703Q85.6934-22.0703 86.6699-23.0469Q87.6465-24.0234 87.6465-25.3906Q87.6465-26.7578 86.6699-27.71Q85.6934-28.6621 84.2773-28.6621L13.0371-28.6621Q11.6699-28.6621 10.7178-27.71Q9.76562-26.7578 9.76562-25.3906Q9.76562-24.0234 10.7178-23.0469Q11.6699-22.0703 13.0371-22.0703ZM13.0371-2.05078L84.2773-2.05078Q85.6934-2.05078 86.6699-3.00293Q87.6465-3.95508 87.6465-5.37109Q87.6465-6.73828 86.6699-7.69043Q85.6934-8.64258 84.2773-8.64258L13.0371-8.64258Q11.6699-8.64258 10.7178-7.69043Q9.76562-6.73828 9.76562-5.37109Q9.76562-3.95508 10.7178-3.00293Q11.6699-2.05078 13.0371-2.05078Z"/>
  </g>
  <g id="Light-S" transform="matrix(1 0 0 1 1105.16 696)">
   <path d="M12.3105-62.8695L83.566-62.8695Q84.6792-62.8695 85.4287-63.6022Q86.1783-64.3349 86.1783-65.4144Q86.1783-66.4942 85.4287-67.2269Q84.6792-67.9596 83.566-67.9596L12.3105-67.9596Q11.231-67.9596 10.4983-67.2269Q9.76562-66.4942 9.76562-65.4144Q9.76562-64.3349 10.4983-63.6022Q11.231-62.8695 12.3105-62.8695ZM12.3105-42.7862L83.566-42.7862Q84.6792-42.7862 85.4287-43.5356Q86.1783-44.2851 86.1783-45.3646Q86.1783-46.4444 85.4287-47.1771Q84.6792-47.9098 83.566-47.9098L12.3105-47.9098Q11.231-47.9098 10.4983-47.1771Q9.76562-46.4444 9.76562-45.3646Q9.76562-44.2851 10.4983-43.5356Q11.231-42.7862 12.3105-42.7862ZM12.3105-22.7364L83.566-22.7364Q84.6792-22.7364 85.4287-23.4858Q86.1783-24.2353 86.1783-25.3148Q86.1783-26.3794 85.4287-27.1196Q84.6792-27.8598 83.566-27.8598L12.3105-27.8598Q11.231-27.8598 10.4983-27.1196Q9.76562-26.3794 9.76562-25.3148Q9.76562-24.2353 10.4983-23.4858Q11.231-22.7364 12.3105-22.7364ZM12.3105-2.68656L83.566-2.68656Q84.6792-2.68656 85.4287-3.41924Q86.1783-4.15192 86.1783-5.26505Q86.1783-6.3296 85.4287-7.06978Q84.6792-7.80996 83.566-7.80996L12.3105-7.80996Q11.231-7.80996 10.4983-7.06978Q9.76562-6.3296 9.76562-5.26505Q9.76562-4.15192 10.4983-3.41924Q11.231-2.68656 12.3105-2.68656Z"/>
  </g>
  <g id="Thin-S" transform="matrix(1 0 0 1 809.421 696)">
   <path d="M11.3496-63.8103L82.6253-63.8103Q83.3378-63.8103 83.7872-64.2527Q84.2366-64.6951 84.2366-65.3942Q84.2366-66.094 83.7872-66.5364Q83.3378-66.9788 82.6253-66.9788L11.3496-66.9788Q10.6504-66.9788 10.208-66.5364Q9.76562-66.094 9.76562-65.3942Q9.76562-64.6951 10.208-64.2527Q10.6504-63.8103 11.3496-63.8103ZM11.3496-43.7071L82.6253-43.7071Q83.3378-43.7071 83.7872-44.1562Q84.2366-44.6053 84.2366-45.3044Q84.2366-46.0042 83.7872-46.4466Q83.3378-46.889 82.6253-46.889L11.3496-46.889Q10.6504-46.889 10.208-46.4466Q9.76562-46.0042 9.76562-45.3044Q9.76562-44.6053 10.208-44.1562Q10.6504-43.7071 11.3496-43.7071ZM11.3496-23.6173L82.6253-23.6173Q83.3378-23.6173 83.7872-24.0664Q84.2366-24.5155 84.2366-25.2146Q84.2366-25.8789 83.7872-26.3387Q83.3378-26.7986 82.6253-26.7986L11.3496-26.7986Q10.6504-26.7986 10.208-26.3387Q9.76562-25.8789 9.76562-25.2146Q9.76562-24.5155 10.208-24.0664Q10.6504-23.6173 11.3496-23.6173ZM11.3496-3.52744L82.6253-3.52744Q83.3378-3.52744 83.7872-3.96984Q84.2366-4.41225 84.2366-5.12479Q84.2366-5.78909 83.7872-6.24892Q83.3378-6.70875 82.6253-6.70875L11.3496-6.70875Q10.6504-6.70875 10.208-6.24892Q9.76562-5.78909 9.76562-5.12479Q9.76562-4.41225 10.208-3.96984Q10.6504-3.52744 11.3496-3.52744Z"/>
  </g>
  <g id="Ultralight-S" transform="matrix(1 0 0 1 513.207 696)">
   <path d="M10.8574-64.2921L82.1434-64.2921Q82.6508-64.2921 82.9464-64.5859Q83.242-64.8796 83.242-65.3839Q83.242-65.889 82.9464-66.1827Q82.6508-66.4764 82.1434-66.4764L10.8574-66.4764Q10.3531-66.4764 10.0594-66.1827Q9.76562-65.889 9.76562-65.3839Q9.76562-64.8796 10.0594-64.5859Q10.3531-64.2921 10.8574-64.2921ZM10.8574-44.1788L82.1434-44.1788Q82.6508-44.1788 82.9464-44.474Q83.242-44.7693 83.242-45.2736Q83.242-45.7787 82.9464-46.0724Q82.6508-46.3661 82.1434-46.3661L10.8574-46.3661Q10.3531-46.3661 10.0594-46.0724Q9.76562-45.7787 9.76562-45.2736Q9.76562-44.7693 10.0594-44.474Q10.3531-44.1788 10.8574-44.1788ZM10.8574-24.0685L82.1434-24.0685Q82.6508-24.0685 82.9464-24.3637Q83.242-24.659 83.242-25.1633Q83.242-25.6226 82.9464-25.9388Q82.6508-26.255 82.1434-26.255L10.8574-26.255Q10.3531-26.255 10.0594-25.9388Q9.76562-25.6226 9.76562-25.1633Q9.76562-24.659 10.0594-24.3637Q10.3531-24.0685 10.8574-24.0685ZM10.8574-3.95813L82.1434-3.95813Q82.6508-3.95813 82.9464-4.25186Q83.242-4.54559 83.242-5.05295Q83.242-5.51224 82.9464-5.82848Q82.6508-6.14471 82.1434-6.14471L10.8574-6.14471Q10.3531-6.14471 10.0594-5.82848Q9.76562-5.51224 9.76562-5.05295Q9.76562-4.54559 10.0594-4.25186Q10.3531-3.95813 10.8574-3.95813Z"/>
  </g>
 </g>
</svg>
